HIERARCHY
ROOT Hips
{
	OFFSET 0.000000 0.000000 0.000000
	CHANNELS 6 Xposition Yposition Zposition Zrotation Yrotation Xrotation 
	JOINT LHipJoint
	{
		OFFSET 0.000000 0.000000 0.000000
		CHANNELS 3 Zrotation Yrotation Xrotation
		JOINT LeftUpLeg
		{
			OFFSET 1.363060 -1.794630 0.839290
			CHANNELS 3 Zrotation Yrotation Xrotation
			JOINT LeftLeg
			{
				OFFSET 2.448110 -6.726130 0.000000
				CHANNELS 3 Zrotation Yrotation Xrotation
				JOINT LeftFoot
				{
					OFFSET 2.562200 -7.039590 0.000000
					CHANNELS 3 Zrotation Yrotation Xrotation
					JOINT LeftToeBase
					{
						OFFSET 0.157640 -0.433110 2.322550
						CHANNELS 3 Zrotation Yrotation Xrotation
						End Site
						{
							OFFSET 0.000000 0.000000 0.000000
						}
					}
				}
			}
		}
	}
	JOINT RHipJoint
	{
		OFFSET 0.000000 0.000000 0.000000
		CHANNELS 3 Zrotation Yrotation Xrotation
		JOINT RightUpLeg
		{
			OFFSET -1.305520 -1.794630 0.839290
			CHANNELS 3 Zrotation Yrotation Xrotation
			JOINT RightLeg
			{
				OFFSET -2.542530 -6.985550 0.000000
				CHANNELS 3 Zrotation Yrotation Xrotation
				JOINT RightFoot
				{
					OFFSET -2.568260 -7.056230 0.000000
					CHANNELS 3 Zrotation Yrotation Xrotation
					JOINT RightToeBase
					{
						OFFSET -0.164730 -0.452590 2.363150
						CHANNELS 3 Zrotation Yrotation Xrotation
						End Site
						{
							OFFSET 0.000000 0.000000 0.000000
						}
					}
				}
			}
		}
	}
	JOINT LowerBack
	{
		OFFSET 0.000000 0.000000 0.000000
		CHANNELS 3 Zrotation Yrotation Xrotation
		JOINT Spine
		{
			OFFSET 0.028270 2.035590 -0.193380
			CHANNELS 3 Zrotation Yrotation Xrotation
			JOINT Spine1
			{
				OFFSET 0.056720 2.048850 -0.042750
				CHANNELS 3 Zrotation Yrotation Xrotation
				JOINT Neck
				{
					OFFSET 0.000000 0.000000 0.000000
					CHANNELS 3 Zrotation Yrotation Xrotation
					JOINT Neck1
					{
						OFFSET -0.054170 1.746240 0.172020
						CHANNELS 3 Zrotation Yrotation Xrotation
						JOINT Head
						{
							OFFSET 0.104070 1.761360 -0.123970
							CHANNELS 3 Zrotation Yrotation Xrotation
							End Site
							{
								OFFSET 0.000000 0.000000 0.000000
							}
						}
					}
				}
				JOINT LeftShoulder
				{
					OFFSET 0.000000 0.000000 0.000000
					CHANNELS 3 Zrotation Yrotation Xrotation
					JOINT LeftArm
					{
						OFFSET 3.362410 1.200890 -0.311210
						CHANNELS 3 Zrotation Yrotation Xrotation
						JOINT LeftForeArm
						{
							OFFSET 4.983000 -0.000000 -0.000000
							CHANNELS 3 Zrotation Yrotation Xrotation
							JOINT LeftHand
							{
								OFFSET 3.483560 -0.000000 -0.000000
								CHANNELS 3 Zrotation Yrotation Xrotation
								JOINT LeftFingerBase
								{
									OFFSET 0.000000 0.000000 0.000000
									CHANNELS 3 Zrotation Yrotation Xrotation
									JOINT LeftHandIndex1
									{
										OFFSET 0.715260 -0.000000 -0.000000
										CHANNELS 3 Zrotation Yrotation Xrotation
										End Site
										{
											OFFSET 0.000000 0.000000 0.000000
										}
									}
								}
								JOINT LThumb
								{
									OFFSET 0.000000 0.000000 0.000000
									CHANNELS 3 Zrotation Yrotation Xrotation
									End Site
									{
										OFFSET 0.000000 0.000000 0.000000
									}
								}
							}
						}
					}
				}
				JOINT RightShoulder
				{
					OFFSET 0.000000 0.000000 0.000000
					CHANNELS 3 Zrotation Yrotation Xrotation
					JOINT RightArm
					{
						OFFSET -3.136600 1.374050 -0.404650
						CHANNELS 3 Zrotation Yrotation Xrotation
						JOINT RightForeArm
						{
							OFFSET -5.241900 -0.000000 -0.000000
							CHANNELS 3 Zrotation Yrotation Xrotation
							JOINT RightHand
							{
								OFFSET -3.444170 -0.000000 -0.000000
								CHANNELS 3 Zrotation Yrotation Xrotation
								JOINT RightFingerBase
								{
									OFFSET 0.000000 0.000000 0.000000
									CHANNELS 3 Zrotation Yrotation Xrotation
									JOINT RightHandIndex1
									{
										OFFSET -0.622530 -0.000000 -0.000000
										CHANNELS 3 Zrotation Yrotation Xrotation
										End Site
										{
											OFFSET 0.000000 0.000000 0.000000
										}
									}
								}
								JOINT RThumb
								{
									OFFSET 0.000000 0.000000 0.000000
									CHANNELS 3 Zrotation Yrotation Xrotation
									End Site
									{
										OFFSET 0.000000 0.000000 0.000000
									}
								}
							}
						}
					}
				}
			}
		}
	}
}
MOTION
Frames: 11
Frame Time: 0.008333
-10.333646 16.566271 0.546524 -13.903451 85.335268 12.953459 -8.528216 -0.235860 1.190473 -16.226647 -9.823947 -50.888606 -2.141020 1.015016 30.788874 1.492955 5.503170 -9.125623 0.104400 0.000001 -7.691400 10.728360 -2.682055 -4.822674 10.362283 -12.169083 -14.963099 1.377157 -3.135489 40.158573 1.051611 18.569544 13.877197 6.215300 0.000001 -81.056300 -5.524833 1.689607 5.981859 -2.443974 1.891994 -2.107114 -7.550020 1.806453 -0.506318 10.365387 5.567912 3.919179 -4.498180 -0.411975 2.626704 0.000000 0.000000 0.000000 -6.684850 -0.672471 2.933693 -51.636725 -3.772577 8.573032 -4.058013 -20.872528 -0.002833 3.038012 1.475061 0.040737 -0.120022 0.007878 0.000000 0.000000 0.000000 0.000000 0.000000 0.000000 0.000000 19.993453 6.516060 -1.599643 81.405492 25.489536 27.837373 1.157424 52.214680 -0.003006 1.161007 12.151115 0.132652 -0.048967 -0.334399 -0.000000 0.000000 0.000000 0.000000 0.000000 0.000000 0.000000 
-10.159230 16.529094 0.569309 -7.546980 85.254769 18.909484 -8.544332 -0.374525 0.986004 -16.650557 -10.015350 -50.684712 -2.010033 1.172422 33.287028 1.637710 6.042118 -10.366147 -0.080800 -0.000000 -6.196300 10.924458 -2.635962 -4.944179 9.217628 -12.612519 -15.892374 1.105974 -3.404943 43.172851 0.897079 18.983700 15.689174 7.004400 0.000000 -80.813599 -6.216359 1.637762 6.280170 -2.577586 1.861513 -2.053488 -7.550598 1.776485 -0.552929 10.288587 5.811686 4.086124 -4.498388 -0.412836 2.658380 0.000000 0.000000 0.000000 -6.942999 -1.006791 2.950416 -51.538447 -4.407675 8.363728 -4.097803 -20.204515 -0.003123 3.071611 1.543999 0.043032 -0.118428 0.011112 0.000000 0.000000 0.000000 0.000000 0.000000 0.000000 0.000000 19.929454 6.622933 -1.614792 81.497349 25.172759 26.722494 1.150541 50.895899 -0.004561 0.934522 12.335896 0.109430 -0.048730 -0.327398 -0.000000 0.000000 0.000000 0.000000 0.000000 0.000000 0.000000 
-9.988343 16.499539 0.587964 -2.746486 85.100114 23.327840 -8.507212 -0.483727 0.755425 -17.121397 -10.047685 -50.298173 -1.917186 1.283214 35.377278 1.789916 6.583867 -11.708898 -0.305800 0.000000 -5.319100 11.146865 -2.553705 -5.030061 8.173602 -12.834622 -16.887926 0.829004 -3.656890 46.165007 0.715229 18.819969 17.469591 7.585800 -0.000000 -79.951000 -6.768509 1.606084 6.583924 -2.684354 1.846947 -1.991606 -7.546203 1.762974 -0.575555 10.133225 6.069534 4.267070 -4.500119 -0.413634 2.692540 0.000000 0.000000 0.000000 -7.224118 -1.292460 2.953175 -51.534585 -5.221770 8.021274 -4.127622 -19.423596 -0.003477 3.159215 1.619337 0.046227 -0.116031 0.015444 0.000000 0.000000 0.000000 0.000000 0.000000 0.000000 0.000000 19.787374 6.729350 -1.635671 81.585988 24.902293 25.522131 1.151107 49.399307 -0.005994 0.685937 12.514264 0.082708 -0.047585 -0.318605 -0.000000 0.000000 0.000000 0.000000 0.000000 0.000000 0.000000 
-9.820395 16.477745 0.601634 0.521513 84.870148 26.238366 -8.446022 -0.555607 0.514449 -17.598086 -9.933342 -49.751691 -1.859322 1.357438 37.044401 1.948854 7.124629 -13.109891 -0.566900 -0.000000 -4.973500 11.360920 -2.433378 -5.083905 7.260948 -12.843772 -17.944078 0.548497 -3.884795 49.111996 0.513962 18.043375 19.109597 7.851500 0.000001 -78.533200 -7.191467 1.597651 6.876687 -2.765558 1.852392 -1.925771 -7.538452 1.769741 -0.574986 9.899502 6.338646 4.458967 -4.504932 -0.414466 2.728991 0.000000 0.000000 0.000000 -7.524726 -1.528251 2.940732 -51.635003 -6.182855 7.526042 -4.143542 -18.573047 -0.003910 3.318145 1.701865 0.050620 -0.112710 0.020767 0.000000 0.000000 0.000000 0.000000 0.000000 0.000000 0.000000 19.573868 6.837084 -1.657866 81.658714 24.675893 24.238905 1.161412 47.737569 -0.007183 0.426278 12.670793 0.053890 -0.045490 -0.308150 -0.000000 0.000000 0.000000 0.000000 0.000000 0.000000 0.000000 
-9.654818 16.463674 0.610206 2.633062 84.587949 28.017937 -8.380525 -0.596313 0.274176 -18.064038 -9.706744 -49.049661 -1.831657 1.398948 38.283319 2.110825 7.658963 -14.504959 -0.854500 0.000000 -5.070800 11.548316 -2.283529 -5.111848 6.473150 -12.677966 -19.057850 0.271256 -4.090885 51.989824 0.298302 16.679612 20.505810 7.736400 -0.000000 -76.696300 -7.508500 1.604658 7.149651 -2.825456 1.871308 -1.860455 -7.528234 1.789848 -0.561916 9.598740 6.629651 4.668734 -4.513568 -0.415486 2.770020 0.000000 0.000000 0.000000 -7.827764 -1.760450 2.917227 -51.850195 -7.196332 6.837706 -4.141140 -17.731881 -0.004430 3.560981 1.791063 0.056812 -0.108285 0.026856 0.000000 0.000000 0.000000 0.000000 0.000000 0.000000 0.000000 19.304589 6.957421 -1.674681 81.698880 24.467678 22.846677 1.181426 45.943215 -0.008031 0.178897 12.778585 0.025574 -0.042777 -0.296235 -0.000000 0.000000 0.000000 0.000000 0.000000 0.000000 0.000000 
-9.490835 16.457119 0.613061 3.669807 84.271762 28.757395 -8.330185 -0.614190 0.043514 -18.474104 -9.389271 -48.227281 -1.826750 1.414184 39.125737 2.267227 8.160665 -15.832127 -1.153800 -0.000000 -5.506300 11.691811 -2.114197 -5.117023 5.837790 -12.354672 -20.223955 0.001592 -4.274427 54.764293 0.072860 14.785694 21.565140 7.221301 -0.000000 -74.616499 -7.711591 1.620411 7.394807 -2.862722 1.897470 -1.791289 -7.519737 1.818032 -0.514252 9.235999 6.908386 4.862871 -4.528985 -0.416451 2.806525 0.000000 0.000000 0.000000 -8.142910 -1.867498 2.878285 -52.162309 -8.405533 6.084525 -4.122381 -16.872839 -0.005050 3.907001 1.866571 0.064504 -0.103079 0.033756 0.000000 0.000000 0.000000 0.000000 0.000000 0.000000 0.000000 18.997655 7.057065 -1.692503 81.699361 24.317494 21.404246 1.215045 44.020819 -0.008468 -0.062008 12.838615 -0.002438 -0.039039 -0.282983 0.000000 0.000000 0.000000 0.000000 0.000000 0.000000 0.000000 
-9.327835 16.457745 0.610610 3.936870 83.944321 28.761441 -8.300090 -0.616475 -0.169834 -18.816159 -9.016320 -47.300232 -1.838121 1.405773 39.603284 2.410192 8.612181 -17.028222 -1.446300 -0.000000 -6.156900 11.792027 -1.935149 -5.101935 5.341463 -11.908485 -21.434933 -0.255716 -4.438529 57.403670 -0.157666 12.484000 22.215306 6.356100 -0.000000 -72.472600 -7.812758 1.637597 7.604219 -2.879906 1.924017 -1.727409 -7.513350 1.846195 -0.461480 8.830469 7.209513 5.067123 -4.549410 -0.417616 2.846251 0.000000 0.000000 0.000000 -8.448218 -1.980567 2.833376 -52.580674 -9.585949 5.210269 -4.081101 -16.153750 -0.005768 4.351377 1.929933 0.073694 -0.096816 0.040809 0.000000 0.000000 0.000000 0.000000 0.000000 0.000000 0.000000 18.665435 7.173531 -1.698134 81.638166 24.158767 19.839507 1.260120 42.031490 -0.008459 -0.260710 12.819922 -0.025748 -0.034942 -0.268862 0.000000 0.000000 0.000000 0.000000 0.000000 0.000000 0.000000 
-9.165125 16.465141 0.603017 3.544105 83.619692 28.148245 -8.295546 -0.609237 -0.360741 -19.066060 -8.613837 -46.305584 -1.858937 1.378929 39.769650 2.531590 8.992030 -18.048036 -1.712600 -0.000000 -6.884600 11.847962 -1.753307 -5.068776 4.988956 -11.358413 -22.684605 -0.498158 -4.583235 59.873435 -0.386489 9.928249 22.412226 5.238700 0.000000 -70.414199 -7.811547 1.649785 7.774426 -2.877748 1.944698 -1.663882 -7.513563 1.869011 -0.383153 8.393628 7.485347 5.246110 -4.577980 -0.418754 2.879480 0.000000 0.000000 0.000000 -8.749194 -1.997115 2.778327 -53.080515 -10.856075 4.371503 -4.021951 -15.566840 -0.006584 4.891682 1.957173 0.083385 -0.090026 0.047843 0.000000 0.000000 0.000000 0.000000 0.000000 0.000000 0.000000 18.335084 7.259783 -1.696945 81.510588 24.042328 18.237757 1.320275 39.974094 -0.008016 -0.437950 12.737819 -0.046353 -0.029928 -0.254157 0.000000 0.000000 0.000000 0.000000 0.000000 0.000000 0.000000 
-9.002242 16.478825 0.591035 2.672365 83.311840 27.100199 -8.314770 -0.595698 -0.524583 -19.220791 -8.210660 -45.269189 -1.883731 1.337491 39.678301 2.626241 9.289639 -18.860956 -1.936800 -0.000000 -7.560800 11.866166 -1.574252 -5.017941 4.763542 -10.727950 -23.964666 -0.723081 -4.709795 62.141608 -0.604610 7.303626 22.142979 4.003500 -0.000000 -68.526100 -7.719379 1.652600 7.899990 -2.858333 1.955084 -1.608958 -7.519328 1.880899 -0.306673 7.946522 7.778117 5.423330 -4.610748 -0.419965 2.913275 0.000000 0.000000 0.000000 -9.028022 -2.019212 2.721909 -53.662193 -12.036007 3.579672 -3.943968 -15.245869 -0.007462 5.501864 1.945864 0.092575 -0.082857 0.054231 0.000000 0.000000 0.000000 0.000000 0.000000 0.000000 0.000000 18.011699 7.363438 -1.679249 81.300217 23.893088 16.512210 1.391427 37.926266 -0.007179 -0.556966 12.565807 -0.059556 -0.024740 -0.239367 0.000000 0.000000 0.000000 0.000000 0.000000 0.000000 0.000000 
-8.838858 16.498293 0.575374 1.420229 83.031229 25.721004 -8.355779 -0.578515 -0.659716 -19.277525 -7.828292 -44.223202 -1.907902 1.286200 39.389222 2.691721 9.500965 -19.458529 -2.108701 -0.000000 -8.084501 11.851711 -1.401273 -4.950387 4.654447 -10.033559 -25.268718 -0.928055 -4.818048 64.176893 -0.801393 4.794738 21.432203 2.789500 -0.000000 -66.874800 -7.545009 1.642091 7.980646 -2.823849 1.951138 -1.559675 -7.532926 1.878370 -0.220915 7.502615 8.042352 5.574768 -4.649566 -0.421127 2.941187 0.000000 0.000000 0.000000 -9.283096 -2.004166 2.661222 -54.305634 -13.171591 2.962315 -3.853451 -15.206563 -0.008368 6.154338 1.881992 0.099467 -0.075993 0.059761 0.000000 0.000000 0.000000 0.000000 0.000000 0.000000 0.000000 17.719322 7.439040 -1.647026 81.003935 23.754461 14.751251 1.475174 35.884376 -0.006043 -0.650117 12.332506 -0.069256 -0.018853 -0.224871 0.000000 0.000000 0.000000 0.000000 0.000000 0.000000 0.000000 
-8.674792 16.523095 0.556956 -0.101038 82.788680 24.123008 -8.414161 -0.558594 -0.765737 -19.244974 -7.483829 -43.190122 -1.928404 1.228832 38.955871 2.728902 9.631526 -19.848733 -2.225300 0.000000 -8.402100 11.811474 -1.236650 -4.866315 4.641879 -9.292955 -26.588316 -1.109935 -4.908145 65.952332 -0.965563 2.569697 20.335380 1.717600 -0.000000 -65.463900 -7.301445 1.615670 8.016447 -2.776341 1.929995 -1.519797 -7.552612 1.858046 -0.139956 7.078483 8.298414 5.710397 -4.690681 -0.422200 2.966373 0.000000 0.000000 0.000000 -9.504979 -1.996944 2.600685 -54.999363 -14.183811 2.574338 -3.754716 -15.509678 -0.009247 6.811153 1.764341 0.102463 -0.069982 0.064217 0.000000 0.000000 0.000000 0.000000 0.000000 0.000000 0.000000 17.459833 7.510686 -1.596872 80.616058 23.583925 12.918306 1.567389 33.903889 -0.004701 -0.705101 12.036025 -0.074052 -0.012679 -0.211059 0.000000 0.000000 0.000000 0.000000 0.000000 0.000000 0.000000 
